<svg xmlns="http://www.w3.org/2000/svg" xmlns:xlink="http://www.w3.org/1999/xlink" width="557.164" height="343.896" viewBox="0 0 557.164 343.896">
  <defs>
    <linearGradient id="linear-gradient" x1="0.092" y1="1.012" x2="0.958" y2="-0.074" gradientUnits="objectBoundingBox">
      <stop offset="0" stop-color="#160f59"/>
      <stop offset="1" stop-color="#344c95"/>
    </linearGradient>
    <linearGradient id="linear-gradient-2" x1="0.756" y1="0.706" x2="0.272" y2="-0.094" gradientUnits="objectBoundingBox">
      <stop offset="0" stop-color="#2b3a83"/>
      <stop offset="1" stop-color="#344c95" stop-opacity="0"/>
    </linearGradient>
  </defs>
  <g id="OBJECTS" transform="translate(-102.377 -73.313)">
    <g id="Group_53" data-name="Group 53" transform="translate(0 -4)">
      <g id="Group_5" data-name="Group 5" transform="translate(23.688 19.345)">
        <rect id="Rectangle_4" data-name="Rectangle 4" width="557.164" height="343.896" transform="translate(78.689 57.968)" fill="url(#linear-gradient)"/>
      </g>
      <path id="Path_1" data-name="Path 1" d="M744.823,401.864l3.67-1.643v-.974l-5.846,2.617Zm3.67-336.644v-.974l-11.888-5.313,2.154-.964h-2.177l-1.066.478-1.066-.478H732.27l2.155.964L720.6,65.108l-13.82-6.176,2.155-.964h-2.177l-1.066.478-1.066-.478h-2.177l2.155.964-13.82,6.176-13.82-6.176,2.155-.964h-2.18l-1.066.478-1.067-.478h-2.177l2.156.964-13.82,6.176-13.82-6.176,2.154-.964h-2.177l-1.066.478-1.068-.478h-2.18l2.155.964-13.82,6.176-13.82-6.176,2.154-.964H617.3l-1.066.478-1.066-.478h-2.177l2.155.964-13.82,6.176-13.82-6.176,2.155-.964h-2.18l-1.067.478-1.066-.478h-2.177l2.155.964-13.82,6.176-13.82-6.176,2.156-.964h-2.177l-1.066.478-1.067-.478h-2.177l2.156.964-13.825,6.176-13.82-6.176,2.154-.964h-2.177l-1.066.478-1.066-.478h-2.177l2.155.964-13.82,6.176-13.82-6.176,2.155-.964h-2.181l-1.066.478-1.066-.478h-2.177l2.155.964-13.82,6.176-13.82-6.176,2.155-.964H468.2l-1.067.478-1.066-.478h-2.177l2.155.964-13.82,6.176-13.824-6.176,2.154-.964h-2.177l-1.066.478-1.067-.478h-2.175l2.154.964-13.82,6.176-13.82-6.176,2.154-.964h-2.177l-1.066.478-1.066-.478h-2.181l2.154.964-13.82,6.176-15.97-7.14H374.44L391.5,65.595l-13.82,6.18L346.795,57.968h-2.177L376.59,72.262l-13.82,6.179-45.8-20.472h-2.18l46.885,20.96-13.82,6.18L287.152,57.968h-2.177l61.793,27.626-13.82,6.176-75.609-33.8h-2.181l76.7,34.289-13.82,6.179L227.518,57.968h-2.181l91.611,40.956-13.82,6.18L197.693,57.968h-2.177L302.039,105.59l-13.82,6.18L191.329,68.453v.974l95.8,42.828-13.82,6.176-81.981-36.65v.974l80.893,36.163L258.4,125.1,191.329,95.115v.974l65.979,29.5-13.82,6.18-52.159-23.318v.97L242.4,132.252l-13.82,6.18-37.252-16.654v.974l36.163,16.167-13.82,6.176-22.343-9.987v.974l21.25,9.5-13.82,6.18-7.43-3.322v.974l6.342,2.834-6.342,2.834v.974l7.43-3.321,13.82,6.179-13.82,6.18-7.43-3.321v.973l6.342,2.835-6.342,2.834v.973l7.43-3.321,13.82,6.18-13.82,6.176-7.43-3.322v.974l6.342,2.834-6.342,2.834v.974l7.43-3.321,13.82,6.179-13.82,6.18-7.43-3.321v.974l6.342,2.834-6.342,2.834v.974l7.43-3.322,13.82,6.18-13.82,6.176-7.43-3.322v.974l6.342,2.834-6.342,2.834v.974l7.43-3.321,13.82,6.18-13.82,6.179-7.43-3.321v.974l6.342,2.834-6.342,2.834v.974l7.43-3.322,13.82,6.18-13.82,6.176-7.43-3.321v.973l6.342,2.835-6.342,2.834v.973l7.43-3.321,13.82,6.18-13.82,6.18-7.43-3.322v.974l6.342,2.834-6.342,2.834v.974l7.43-3.322,13.82,6.18-13.82,6.176-7.43-3.321v.974l6.342,2.834-6.342,2.834v.974l7.43-3.322,13.82,6.18-13.82,6.18-7.43-3.322v.974l6.342,2.834-6.342,2.834v.974l7.43-3.321,13.82,6.179-13.82,6.176-7.43-3.321v.974l6.342,2.834-6.342,2.834v.974l7.43-3.322,13.82,6.18-13.82,6.18-7.43-3.322v.974l6.342,2.834-6.342,2.834v.974l7.43-3.321,13.82,6.179-13.82,6.18-7.43-3.321v.974l6.342,2.834-6.342,2.834v.974l7.43-3.322,13.82,6.176-13.82,6.18-7.43-3.322v.974l6.342,2.834-6.342,2.834v.974l7.43-3.321,13.82,6.18-13.82,6.179-7.43-3.321v.974l6.342,2.834-6.342,2.834v.974l7.43-3.322,13.82,6.176-13.82,6.18-7.43-3.321v.973l6.342,2.834-6.342,2.835v.973l7.43-3.321,13.82,6.18-13.82,6.18-7.43-3.322v.974l6.342,2.834-6.342,2.834v.974l7.43-3.322,13.82,6.176-13.82,6.18-7.43-3.321v.974l6.342,2.834-6.342,2.834v.974l7.43-3.322,13.82,6.18-13.82,6.18-7.43-3.322v.974l6.342,2.834-6.342,2.834v.974l7.43-3.321,13.82,6.176-6.69,2.992h2.177l5.606-2.505,5.6,2.505h2.177l-6.69-2.992,13.82-6.176,13.82,6.176-6.691,2.992h2.177l5.6-2.505,5.6,2.505h2.177l-6.691-2.992L258.4,392.7l13.825,6.176-6.695,2.992h2.181l5.6-2.505,5.6,2.505h2.177l-6.69-2.992,13.82-6.176,13.82,6.176-6.69,2.992h2.177l5.6-2.505,5.606,2.505h2.177l-6.69-2.992,13.82-6.176,13.82,6.176-6.691,2.992h2.177l5.6-2.505,5.6,2.505h2.177l-6.69-2.992,13.82-6.176,13.82,6.176-6.691,2.992h2.181l5.6-2.505,5.6,2.505h2.175l-6.69-2.992,13.82-6.176,13.82,6.176-6.69,2.992h2.177l5.6-2.505,5.6,2.505h2.181l-6.695-2.992L407.5,392.7l13.82,6.176-6.69,2.992h2.175l5.6-2.505,5.6,2.505h2.177l-6.69-2.992,13.82-6.176,13.82,6.176-6.691,2.992h2.177l5.606-2.505,5.6,2.505h2.177l-6.691-2.992,13.82-6.176,13.82,6.176-6.69,2.992h2.177l5.6-2.505,5.6,2.505h2.18l-6.695-2.992,13.825-6.176,13.82,6.176-6.69,2.992h2.177l5.6-2.505,5.6,2.505h2.177l-6.69-2.992,13.82-6.176,13.82,6.176-6.69,2.992h2.177l5.6-2.505,5.606,2.505h2.177l-6.69-2.992L556.6,392.7l13.82,6.176-6.691,2.992H565.9l5.6-2.505,5.6,2.505h2.177l-6.691-2.992,13.82-6.176,13.82,6.176-6.69,2.992h2.181l5.6-2.505,5.6,2.505h2.177l-6.69-2.992,13.82-6.176,13.82,6.176-6.69,2.992h2.177l5.6-2.505,5.6,2.505h2.181l-6.69-2.992,13.82-6.176,13.82,6.176-6.691,2.992h2.177l5.6-2.505,5.6,2.505h2.177l-6.69-2.992,13.82-6.176,13.82,6.176L683,401.864h2.177l5.606-2.505,5.6,2.505h2.175l-6.69-2.992L705.7,392.7l13.82,6.176-6.69,2.992H715l5.6-2.505,5.6,2.505h2.181l-6.695-2.992,10.357-4.627,3.467-1.549,12.976,5.8v-.974l-11.888-5.313,11.888-5.316v-.974l-12.976,5.8-13.825-6.18,13.825-6.18,12.976,5.8v-.974l-11.888-5.316,11.888-5.317v-.974l-12.976,5.8-13.82-6.18,13.82-6.176,12.976,5.8v-.974l-11.888-5.313,11.888-5.317v-.973l-12.976,5.8-13.825-6.18,13.825-6.18,12.976,5.8v-.974l-11.888-5.317,11.888-5.316v-.974l-12.976,5.8-13.825-6.18,13.825-6.176,12.976,5.8V344.2l-11.888-5.313,11.888-5.317v-.974l-12.976,5.8-13.825-6.179,13.825-6.18,12.976,5.8v-.974l-11.888-5.317,11.888-5.316v-.974l-12.976,5.8-13.825-6.18,13.825-6.18,12.976,5.8v-.973l-11.888-5.313,11.888-5.317v-.974l-12.976,5.8-13.825-6.18,13.825-6.179,12.976,5.8v-.974l-11.888-5.317,11.888-5.316V292.6l-12.976,5.8-13.825-6.18,13.825-6.176,12.976,5.8v-.974l-11.888-5.312,11.888-5.317v-.974l-12.976,5.8-13.825-6.18,13.825-6.179,12.976,5.8v-.973l-11.888-5.317,11.888-5.317v-.973l-12.976,5.8-13.825-6.18,13.825-6.18,12.976,5.8v-.974L736.606,258.9l11.888-5.313v-.974l-12.976,5.8-13.825-6.176,13.825-6.18,12.976,5.8v-.973l-11.888-5.317,11.888-5.317v-.974l-12.976,5.8-13.825-6.18,13.825-6.18,12.976,5.8v-.974l-11.888-5.316,11.888-5.313v-.974l-12.976,5.8-13.825-6.176,13.825-6.18,12.976,5.8v-.974L736.606,218.9l11.888-5.317v-.974l-12.976,5.8-13.825-6.179,13.825-6.18,12.976,5.8v-.974l-11.888-5.317,11.888-5.313v-.973l-12.976,5.8-13.825-6.176,13.825-6.18,12.976,5.8v-.974l-11.888-5.316,11.888-5.317v-.974l-12.976,5.8-13.825-6.18,13.825-6.179,12.976,5.8v-.974l-11.888-5.317,11.888-5.313v-.974l-12.976,5.8-13.825-6.176,13.825-6.18,12.976,5.8V170.9l-11.888-5.316,11.888-5.317v-.974l-12.976,5.8-13.825-6.18,13.825-6.179,12.976,5.8v-.974l-11.888-5.317,11.888-5.313v-.974l-12.976,5.8-13.825-6.18,13.825-6.176,12.976,5.8v-.974l-11.888-5.317,11.888-5.316v-.974l-12.976,5.8-13.825-6.18,13.825-6.18,12.976,5.8V130.9l-11.888-5.317,11.888-5.317v-.974l-12.976,5.8-13.825-6.18,13.825-6.176,12.976,5.8v-.974l-11.888-5.313,11.888-5.316v-.974l-12.98,5.8-13.82-6.18,13.825-6.18,12.976,5.8v-.974l-11.888-5.316,11.888-5.317v-.974l-12.976,5.8-13.825-6.179,13.825-6.177,12.976,5.8v-.974l-11.888-5.313,11.888-5.317V79.3l-12.976,5.8-13.825-6.18,13.82-6.18,12.98,5.8v-.974l-11.888-5.316,11.888-5.317v-.974l-12.98,5.8-13.82-6.18,13.82-6.176Zm-42.8-5.8,13.82,6.176-13.82,6.18-13.82-6.18ZM393.68,225.57l13.82-6.18,13.82,6.18-13.82,6.176Zm12.727,6.663-13.82,6.179-13.82-6.179,13.82-6.177Zm16-6.177,13.82,6.177-13.82,6.179-13.82-6.179Zm1.088-.487,13.82-6.18,13.82,6.18-13.82,6.176Zm28.732.487,13.82,6.177-13.82,6.179-13.824-6.179Zm1.088-.487,13.82-6.18,13.82,6.18-13.82,6.176Zm28.729.487,13.82,6.177-13.82,6.179-13.82-6.179Zm1.088-.487,13.82-6.18,13.825,6.18-13.82,6.176Zm28.733.487,13.82,6.177-13.82,6.179-13.82-6.179Zm1.088-.487,13.82-6.18,13.82,6.18-13.82,6.176Zm28.729.487,13.825,6.177-13.825,6.179-13.82-6.179Zm-13.82-7.153,13.82-6.18,13.825,6.18-13.825,6.18Zm-1.088-.487-13.82-6.179,13.82-6.18,13.82,6.18Zm-1.088.487-13.82,6.18-13.82-6.18,13.82-6.18Zm-28.733-.487-13.82-6.179,13.825-6.18,13.82,6.18Zm-1.088.487-13.82,6.18-13.82-6.18,13.82-6.18Zm-28.729-.487-13.82-6.179,13.82-6.18,13.82,6.18Zm-1.088.487-13.82,6.18-13.824-6.18,13.824-6.18Zm-28.732-.487-13.82-6.179,13.82-6.18,13.82,6.18Zm-1.088.487-13.82,6.18-13.82-6.18,13.82-6.18Zm-28.729-.487-13.82-6.179,13.82-6.18,13.82,6.18Zm-1.093.487-13.82,6.18-13.82-6.18,13.82-6.18ZM391.5,225.57l-13.82,6.176-13.82-6.176,13.82-6.18Zm0,13.33-13.82,6.18-13.82-6.18,13.82-6.18Zm1.088.487,13.82,6.18-13.82,6.18-13.82-6.18Zm1.093-.487,13.82-6.18,13.82,6.18-13.82,6.18Zm28.729.487,13.82,6.18-13.82,6.18-13.82-6.18Zm1.088-.487,13.82-6.18,13.82,6.18-13.82,6.18Zm28.732.487,13.82,6.18-13.82,6.18-13.82-6.18Zm1.088-.487,13.82-6.18,13.82,6.18-13.82,6.18Zm28.729.487,13.82,6.18-13.82,6.18-13.82-6.18Zm1.088-.487,13.825-6.18,13.82,6.18-13.825,6.18Zm28.733.487,13.82,6.18-13.82,6.18-13.82-6.18Zm1.088-.487,13.82-6.18,13.82,6.18-13.82,6.18Zm28.729.487,13.825,6.18-13.825,6.18-13.82-6.18Zm1.093-.487,13.82-6.18,13.82,6.18-13.82,6.18Zm0-13.33,13.82-6.18,13.82,6.18-13.82,6.176Zm0-13.332,13.82-6.18,13.82,6.18-13.82,6.179Zm0-13.33,13.82-6.18,13.82,6.18-13.82,6.176Zm12.732,6.663-13.825,6.18-13.82-6.18,13.82-6.176Zm-28.733-.487-13.82-6.176,13.82-6.18,13.82,6.18Zm-1.088.487-13.82,6.18-13.82-6.18,13.82-6.176Zm-28.729-.487-13.825-6.176,13.825-6.18,13.82,6.18Zm-1.093.487-13.82,6.18-13.82-6.18,13.82-6.176Zm-28.729-.487-13.82-6.176,13.82-6.18,13.82,6.18Zm-1.088.487-13.82,6.18-13.824-6.18,13.824-6.176Zm-28.732-.487-13.82-6.176,13.82-6.18,13.82,6.18Zm-1.088.487-13.82,6.18-13.82-6.18,13.82-6.176Zm-28.729-.487-13.82-6.176,13.82-6.18,13.82,6.18Zm-1.093.487-13.82,6.18-13.82-6.18,13.82-6.176ZM391.5,212.238l-13.82,6.179-13.82-6.179,13.82-6.18ZM376.59,218.9l-13.82,6.18-13.82-6.18,13.82-6.18Zm0,13.33-13.82,6.179-13.82-6.179,13.82-6.177Zm0,13.332-13.82,6.18-13.82-6.18,13.82-6.18Zm0,13.33-13.82,6.179-13.82-6.179,13.82-6.176Zm-12.732-6.663,13.82-6.18,13.82,6.18-13.82,6.176Zm28.729.487,13.82,6.176-13.82,6.179-13.82-6.179Zm1.093-.487,13.82-6.18,13.82,6.18-13.82,6.176Zm28.729.487,13.82,6.176-13.82,6.179-13.82-6.179Zm1.088-.487,13.82-6.18,13.82,6.18-13.82,6.176Zm28.732.487,13.82,6.176-13.82,6.179L438.405,258.9Zm1.088-.487,13.82-6.18,13.82,6.18-13.82,6.176Zm28.729.487,13.82,6.176-13.82,6.179-13.82-6.179Zm1.088-.487,13.82-6.18,13.825,6.18-13.82,6.176Zm28.733.487,13.82,6.176-13.82,6.179-13.82-6.179Zm1.088-.487,13.82-6.18,13.82,6.18-13.82,6.176Zm28.729.487L555.51,258.9l-13.825,6.179-13.82-6.179Zm1.093-.487,13.82-6.18,13.82,6.18-13.82,6.176Zm28.728.487,13.82,6.176-13.82,6.179-13.82-6.179Zm-13.82-7.154,13.82-6.18,13.82,6.18-13.82,6.18Zm0-13.332,13.82-6.177,13.82,6.177-13.82,6.179Zm0-13.33,13.82-6.18,13.82,6.18-13.82,6.18Zm0-13.333,13.82-6.176,13.82,6.176-13.82,6.18Zm0-13.329,13.82-6.18,13.82,6.18-13.82,6.179Zm-1.087-.487-13.82-6.18L556.6,179.4l13.82,6.179Zm-1.093.487-13.82,6.179-13.82-6.179,13.82-6.18Zm-28.729-.487-13.82-6.18,13.82-6.179,13.82,6.179Zm-1.088.487-13.82,6.179-13.82-6.179,13.82-6.18Zm-28.729-.487-13.825-6.18,13.82-6.179,13.825,6.179Zm-1.093.487-13.82,6.179-13.82-6.179,13.82-6.18Zm-28.729-.487-13.82-6.18,13.82-6.179,13.82,6.179Zm-1.088.487-13.82,6.179-13.824-6.179,13.824-6.18Zm-28.732-.487-13.82-6.18,13.82-6.179,13.82,6.179Zm-1.088.487-13.82,6.179-13.82-6.179,13.82-6.18Zm-28.729-.487-13.82-6.18L407.5,179.4l13.82,6.179Zm-1.093.487-13.82,6.179-13.82-6.179,13.82-6.18ZM391.5,198.908l-13.82,6.176-13.82-6.176,13.82-6.18Zm-14.909,6.663-13.82,6.18-13.82-6.18,13.82-6.176Zm-14.912,6.667-13.82,6.179-13.82-6.179,13.82-6.18Zm0,13.332-13.82,6.176-13.82-6.176,13.82-6.18Zm0,13.33-13.82,6.18-13.82-6.18,13.82-6.18Zm0,13.332-13.82,6.176-13.82-6.176,13.82-6.18Zm0,13.33-13.82,6.18-13.82-6.18,13.82-6.18Zm1.092.487,13.82,6.18-13.82,6.18-13.82-6.18Zm1.088-.487,13.82-6.18,13.82,6.18-13.82,6.18Zm28.729.487,13.82,6.18-13.82,6.18-13.82-6.18Zm1.093-.487,13.82-6.18,13.82,6.18-13.82,6.18Zm28.729.487,13.82,6.18-13.82,6.18-13.82-6.18Zm1.088-.487,13.82-6.18,13.82,6.18-13.82,6.18Zm28.732.487,13.82,6.18-13.82,6.18-13.824-6.18Zm1.088-.487,13.82-6.18,13.82,6.18-13.82,6.18Zm28.729.487,13.82,6.18-13.82,6.18-13.82-6.18Zm1.093-.487,13.82-6.18,13.82,6.18-13.82,6.18Zm28.729.487,13.82,6.18-13.82,6.18-13.82-6.18Zm1.088-.487,13.82-6.18,13.82,6.18-13.82,6.18Zm28.729.487,13.825,6.18-13.825,6.18-13.82-6.18Zm1.093-.487,13.82-6.18,13.82,6.18-13.82,6.18Zm28.728.487,13.82,6.18-13.82,6.18-13.82-6.18Zm1.088-.487,13.82-6.18,13.82,6.18-13.82,6.18Zm0-13.33,13.82-6.18,13.825,6.18-13.825,6.176Zm0-13.332,13.82-6.18,13.82,6.18-13.82,6.18Zm0-13.33,13.82-6.18,13.82,6.18-13.82,6.176Zm0-13.332,13.82-6.18,13.825,6.18-13.825,6.179Zm0-13.33,13.82-6.18,13.82,6.18-13.82,6.176Zm0-13.333,13.82-6.179,13.825,6.179-13.825,6.18Zm0-13.329,13.82-6.18,13.82,6.18-13.82,6.176Zm12.732,6.663-13.82,6.18-13.82-6.18,13.82-6.176Zm-28.728-.487-13.82-6.176,13.82-6.18,13.82,6.18Zm-1.088.487-13.825,6.18-13.82-6.18,13.82-6.176Zm-28.733-.487-13.82-6.176,13.82-6.18,13.82,6.18Zm-1.088.487-13.82,6.18-13.82-6.18,13.82-6.176Zm-28.733-.487-13.82-6.176,13.825-6.18,13.82,6.18Zm-1.088.487-13.82,6.18-13.82-6.18,13.82-6.176Zm-28.729-.487-13.82-6.176,13.82-6.18,13.82,6.18Zm-1.088.487-13.82,6.18-13.82-6.18,13.82-6.176Zm-28.732-.487-13.82-6.176,13.82-6.18,13.82,6.18Zm-1.088.487-13.82,6.18-13.82-6.18,13.82-6.176Zm-28.729-.487-13.82-6.176,13.82-6.18,13.82,6.18Zm-1.093.487-13.82,6.18-13.82-6.18,13.82-6.176ZM391.5,185.575l-13.82,6.18-13.82-6.18,13.82-6.179Zm-14.909,6.667-13.82,6.179-13.82-6.179,13.82-6.18Zm-14.912,6.666-13.82,6.176-13.82-6.176,13.82-6.18Zm-14.909,6.663-13.82,6.18-13.82-6.18,13.82-6.176Zm0,13.333-13.82,6.18-13.82-6.18,13.82-6.18Zm0,13.33-13.82,6.179-13.82-6.179,13.82-6.177Zm0,13.332-13.82,6.18-13.82-6.18,13.82-6.18Zm0,13.33-13.82,6.179-13.82-6.179,13.82-6.176Zm0,13.332-13.82,6.18-13.82-6.18,13.82-6.18Zm0,13.33-13.82,6.18-13.82-6.176,13.82-6.18Zm-12.732-6.663,13.82-6.179,13.82,6.179-13.82,6.176Zm28.732.487,13.82,6.176-13.82,6.18-13.82-6.18Zm1.088-.487,13.82-6.179,13.82,6.179-13.82,6.18Zm28.729.487,13.82,6.176-13.82,6.18-13.82-6.18Zm1.093-.487,13.82-6.179,13.82,6.179-13.82,6.18Zm28.729.487,13.82,6.18-13.82,6.176-13.82-6.18Zm1.088-.487,13.82-6.179,13.82,6.179-13.82,6.18Zm28.732.487,13.82,6.176-13.82,6.18-13.82-6.176Zm1.088-.487,13.82-6.179,13.82,6.179-13.82,6.18Zm28.729.487,13.82,6.176-13.82,6.18-13.82-6.18Zm1.088-.487,13.825-6.179,13.82,6.179-13.825,6.18Zm28.733.487,13.82,6.176-13.82,6.18-13.82-6.18Zm1.088-.487,13.82-6.179,13.82,6.179-13.82,6.176Zm28.729.487,13.825,6.18-13.825,6.176-13.82-6.18Zm1.093-.487,13.82-6.179,13.82,6.179-13.82,6.18Zm28.728.487,13.82,6.18-13.82,6.176-13.82-6.176Zm1.088-.487,13.82-6.179,13.825,6.179-13.825,6.18Zm28.733.487,13.82,6.18-13.82,6.176-13.82-6.176Zm-13.82-7.154,13.82-6.18,13.82,6.18-13.82,6.18Zm0-13.332,13.82-6.176,13.82,6.176-13.82,6.179Zm0-13.33,13.82-6.18,13.82,6.18-13.82,6.18Zm0-13.332,13.82-6.177,13.82,6.177-13.82,6.179Zm0-13.33,13.82-6.18,13.82,6.18-13.82,6.18Zm0-13.333,13.82-6.176,13.82,6.176-13.82,6.18Zm0-13.329,13.82-6.18,13.82,6.18-13.82,6.179Zm0-13.333,13.82-6.176,13.82,6.176-13.82,6.18Zm0-13.329,13.82-6.18,13.82,6.18-13.82,6.179Zm-1.093-.487-13.82-6.18,13.82-6.179,13.82,6.179Zm-1.088.487-13.82,6.179-13.82-6.179,13.82-6.18Zm-28.728-.487-13.82-6.18,13.82-6.179,13.82,6.179Zm-1.088.487-13.825,6.179-13.82-6.179,13.82-6.18Zm-28.733-.487-13.82-6.18,13.82-6.179,13.82,6.179Zm-1.088.487-13.82,6.179-13.82-6.179,13.82-6.18Zm-28.729-.487-13.825-6.18,13.82-6.179,13.825,6.179Zm-1.093.487-13.82,6.179-13.82-6.179,13.82-6.18Zm-28.729-.487-13.82-6.18,13.82-6.179,13.82,6.179Zm-1.088.487-13.82,6.179-13.824-6.179,13.824-6.18Zm-28.732-.487-13.82-6.18,13.82-6.179,13.82,6.179Zm-1.088.487-13.82,6.179-13.82-6.179,13.82-6.18Zm-28.729-.487-13.82-6.18,13.82-6.179,13.82,6.179Zm-1.093.487-13.82,6.179-13.82-6.179,13.82-6.18ZM391.5,172.247l-13.82,6.176-13.82-6.176,13.82-6.18Zm-14.909,6.663-13.82,6.18-13.82-6.18,13.82-6.176Zm-14.912,6.666-13.82,6.18-13.82-6.18,13.82-6.179Zm-14.909,6.667-13.82,6.179-13.82-6.179,13.82-6.18Zm-14.909,6.666-13.82,6.176-13.82-6.176,13.82-6.18Zm0,13.33-13.82,6.179-13.82-6.179,13.82-6.18Zm0,13.332-13.82,6.176-13.82-6.176,13.82-6.18Zm0,13.33-13.82,6.18-13.82-6.18,13.82-6.18Zm0,13.332-13.82,6.176-13.82-6.176,13.82-6.18Zm0,13.33-13.82,6.18-13.82-6.18,13.82-6.18Zm0,13.332-13.82,6.18-13.82-6.18,13.82-6.179Zm0,13.33-13.82,6.18-13.82-6.18,13.82-6.18Zm1.088.487,13.82,6.18-13.82,6.18-13.82-6.18Zm1.088-.487,13.82-6.18,13.82,6.18-13.82,6.18Zm28.732.487,13.82,6.18-13.82,6.18-13.82-6.18Zm1.088-.487,13.82-6.18,13.82,6.18-13.82,6.18Zm28.729.487,13.82,6.18-13.82,6.18-13.82-6.18Zm1.093-.487,13.82-6.18,13.82,6.18L407.5,298.4Zm28.729.487,13.82,6.18-13.82,6.18-13.82-6.18Zm1.088-.487,13.82-6.176,13.82,6.176-13.82,6.18Zm28.732.487,13.82,6.18-13.82,6.18-13.824-6.18Zm1.088-.487,13.82-6.18,13.82,6.18-13.82,6.18Zm28.729.487,13.82,6.18-13.82,6.18-13.82-6.18Zm1.088-.487,13.82-6.18,13.825,6.18-13.82,6.18Zm28.733.487,13.82,6.18-13.82,6.18-13.82-6.18Zm1.088-.487,13.82-6.18,13.82,6.18-13.82,6.18Zm28.729.487,13.825,6.18-13.825,6.18-13.82-6.18Zm1.093-.487,13.82-6.18,13.82,6.18L556.6,298.4Zm28.728.487,13.82,6.18-13.82,6.18-13.82-6.18Zm1.088-.487,13.82-6.176,13.82,6.176-13.82,6.18Zm28.733.487,13.82,6.18-13.82,6.18-13.82-6.18Zm1.088-.487,13.82-6.18,13.82,6.18-13.82,6.18Zm0-13.33,13.82-6.179,13.82,6.179-13.82,6.18Zm0-13.332,13.82-6.18,13.82,6.18-13.82,6.18Zm0-13.33,13.82-6.18,13.82,6.18-13.82,6.176Zm0-13.332,13.82-6.18,13.82,6.18-13.82,6.18Zm0-13.33,13.82-6.18,13.82,6.18-13.82,6.176Zm0-13.332,13.82-6.18,13.82,6.18-13.82,6.179Zm0-13.33,13.82-6.18,13.82,6.18-13.82,6.176Zm0-13.333,13.82-6.179,13.82,6.179-13.82,6.18Zm0-13.329,13.82-6.18,13.82,6.18-13.82,6.176Zm0-13.333,13.82-6.179,13.82,6.179-13.82,6.18Zm0-13.329,13.82-6.18,13.82,6.18-13.82,6.176Zm12.732,6.663-13.82,6.18-13.82-6.18,13.82-6.176Zm-28.734-.487-13.82-6.176,13.82-6.18,13.825,6.18Zm-1.088.487-13.82,6.18-13.82-6.18,13.82-6.176Zm-28.728-.487-13.82-6.176,13.82-6.18,13.82,6.18Zm-1.093.487-13.82,6.18-13.82-6.18,13.82-6.176Zm-28.729-.487-13.82-6.18,13.82-6.176,13.82,6.18Zm-1.088.487-13.82,6.18-13.82-6.18,13.82-6.18Zm-28.733-.487-13.82-6.176,13.825-6.18,13.82,6.176Zm-1.088.487-13.82,6.18-13.82-6.18,13.82-6.176Zm-28.729-.487-13.82-6.18,13.82-6.176,13.82,6.18Zm-1.088.487-13.82,6.18-13.824-6.18,13.824-6.176Zm-28.732-.487-13.82-6.176,13.82-6.18,13.82,6.18Zm-1.088.487-13.82,6.18-13.82-6.18,13.82-6.176Zm-28.729-.487-13.82-6.176,13.82-6.18,13.82,6.18Zm-1.093.487-13.82,6.18-13.82-6.18,13.82-6.176ZM391.5,158.913l-13.82,6.18-13.82-6.18,13.82-6.179ZM376.59,165.58l-13.82,6.179-13.82-6.179,13.82-6.18Zm-14.912,6.666-13.82,6.176-13.82-6.176,13.82-6.18Zm-14.909,6.663-13.82,6.18-13.82-6.18,13.82-6.176Zm-14.909,6.666-13.82,6.18-13.82-6.18,13.82-6.179Zm-14.909,6.667-13.825,6.179-13.82-6.179,13.82-6.18Zm0,13.329-13.825,6.18-13.82-6.18,13.82-6.176Zm0,13.333-13.825,6.18-13.82-6.18,13.82-6.18Zm0,13.33-13.82,6.179-13.82-6.179,13.82-6.177Zm0,13.332-13.825,6.18-13.82-6.18,13.82-6.18Zm0,13.33-13.825,6.179-13.82-6.179,13.82-6.176Zm0,13.332-13.825,6.18-13.82-6.18,13.82-6.18Zm0,13.333-13.825,6.176-13.82-6.176,13.82-6.18Zm0,13.329-13.82,6.18-13.82-6.18,13.82-6.18Zm0,13.333-13.82,6.176-13.825-6.176,13.82-6.18Zm-12.732-6.667,13.82-6.179,13.82,6.179-13.82,6.18Zm28.729.488,13.82,6.18-13.82,6.176-13.82-6.176Zm1.088-.488,13.82-6.179,13.82,6.179-13.82,6.18Zm28.732.488,13.82,6.18-13.82,6.176-13.82-6.176Zm1.088-.488,13.82-6.179,13.82,6.179-13.82,6.18Zm28.729.488,13.82,6.18-13.82,6.176-13.82-6.176Zm1.093-.488,13.82-6.179,13.82,6.179-13.82,6.18Zm28.729.488,13.82,6.18-13.82,6.176-13.82-6.176Zm1.088-.488,13.82-6.179,13.82,6.179-13.82,6.18Zm28.732.488,13.82,6.18-13.82,6.176-13.824-6.176Zm1.088-.488,13.82-6.179,13.82,6.179-13.82,6.18Zm28.729.488,13.82,6.18-13.82,6.176-13.82-6.176Zm1.088-.488,13.825-6.179,13.82,6.179-13.825,6.18Zm28.733.488,13.82,6.18-13.82,6.176-13.82-6.176Zm1.088-.488,13.82-6.179,13.82,6.179-13.82,6.18Zm28.729.488,13.825,6.18L541.685,318.4l-13.82-6.176Zm1.093-.488,13.82-6.179,13.82,6.179-13.82,6.18Zm28.728.488,13.82,6.176-13.82,6.18-13.82-6.176Zm1.088-.488,13.82-6.179,13.82,6.179-13.82,6.18Zm28.733.488,13.82,6.18-13.82,6.176-13.82-6.18Zm1.088-.488,13.82-6.179,13.82,6.179-13.82,6.18Zm28.729.488,13.82,6.18-13.82,6.176-13.82-6.176Zm-13.82-7.154,13.82-6.18,13.82,6.18-13.82,6.18Zm0-13.329,13.82-6.18,13.82,6.176-13.82,6.18Zm0-13.333,13.82-6.18,13.82,6.18-13.82,6.18Zm0-13.332,13.82-6.176,13.82,6.176-13.82,6.179Zm0-13.33,13.82-6.18,13.82,6.18-13.82,6.18Zm0-13.332,13.82-6.177,13.82,6.177-13.82,6.179Zm0-13.33,13.82-6.18,13.82,6.18-13.82,6.18Zm0-13.333,13.82-6.176,13.82,6.176-13.82,6.18Zm0-13.329,13.82-6.18,13.82,6.18-13.82,6.179Zm0-13.333,13.82-6.176,13.82,6.176-13.82,6.18Zm0-13.329,13.82-6.18,13.82,6.18-13.82,6.179Zm0-13.333,13.82-6.176,13.82,6.176-13.82,6.18Zm0-13.33,13.82-6.179,13.82,6.179-13.82,6.18Zm-1.088-.487-13.82-6.18,13.82-6.18,13.82,6.18Zm-1.088.487-13.82,6.18-13.82-6.18,13.82-6.179Zm-28.734-.487-13.82-6.18,13.82-6.18,13.82,6.18Zm-1.088.487-13.82,6.18-13.82-6.18,13.82-6.179Zm-28.728-.487-13.82-6.18,13.82-6.18,13.82,6.18Zm-1.088.487-13.825,6.18-13.82-6.18,13.82-6.179Zm-28.733-.487-13.82-6.18,13.82-6.18,13.82,6.18Zm-1.088.487-13.82,6.176-13.82-6.176,13.82-6.179Zm-28.729-.487-13.825-6.18,13.82-6.18,13.825,6.18Zm-1.093.487-13.82,6.18-13.82-6.18,13.82-6.179Zm-28.729-.487-13.82-6.18,13.82-6.18,13.82,6.18Zm-1.088.487-13.82,6.18-13.82-6.18,13.82-6.179Zm-28.732-.487-13.82-6.18,13.82-6.18,13.82,6.18Zm-1.088.487-13.82,6.18-13.82-6.18,13.82-6.179Zm-28.729-.487-13.825-6.18,13.825-6.18,13.82,6.18Zm-1.093.487-13.82,6.18-13.82-6.18,13.82-6.179ZM391.5,145.585l-13.82,6.176-13.82-6.18,13.82-6.176Zm-14.909,6.663-13.82,6.18-13.82-6.18,13.82-6.18Zm-14.912,6.666-13.82,6.18-13.82-6.18,13.82-6.179Zm-14.909,6.667-13.82,6.179-13.82-6.179,13.82-6.18Zm-14.909,6.666-13.82,6.176-13.82-6.176,13.82-6.18Zm-14.909,6.663-13.825,6.18-13.82-6.18,13.82-6.176Zm-14.913,6.666-13.82,6.18-13.82-6.18,13.82-6.179Zm0,13.333-13.82,6.176-13.82-6.176,13.82-6.18Zm0,13.33-13.82,6.179-13.82-6.179,13.82-6.18Zm0,13.332-13.82,6.176L274.4,225.57l13.82-6.18Zm0,13.33-13.82,6.18L274.4,238.9l13.82-6.18Zm0,13.332-13.82,6.176-13.82-6.176,13.82-6.18Zm0,13.33-13.82,6.18-13.82-6.18,13.82-6.18Zm0,13.332-13.82,6.18-13.82-6.18,13.82-6.179Zm0,13.33-13.82,6.18-13.82-6.18,13.82-6.176Zm0,13.332-13.82,6.18-13.82-6.18,13.82-6.179Zm0,13.33-13.82,6.18-13.82-6.18,13.82-6.176Zm1.093.488,13.82,6.179-13.825,6.18-13.82-6.18Zm1.088-.488,13.82-6.176,13.82,6.176-13.82,6.18Zm28.729.488,13.82,6.179-13.82,6.18-13.82-6.18Zm1.088-.488,13.82-6.176,13.82,6.176-13.82,6.18Zm28.732.488,13.82,6.179-13.82,6.18-13.82-6.18Zm1.088-.488,13.82-6.176,13.82,6.176-13.82,6.18Zm28.729.488,13.82,6.179-13.82,6.18-13.82-6.18Zm1.093-.488,13.82-6.176,13.82,6.176-13.82,6.18Zm28.729.488,13.82,6.179-13.82,6.18-13.82-6.18Zm1.088-.488,13.82-6.176,13.82,6.176-13.82,6.18Zm28.732.488,13.82,6.179-13.82,6.18-13.824-6.18Zm1.088-.488,13.82-6.176,13.82,6.176-13.82,6.18Zm28.729.488,13.82,6.179-13.82,6.18-13.82-6.18Zm1.088-.488,13.82-6.176,13.825,6.176-13.82,6.18Zm28.733.488,13.82,6.179-13.82,6.18-13.82-6.18Zm1.088-.488,13.82-6.176,13.82,6.176-13.82,6.18Zm28.729.488,13.825,6.179-13.825,6.18-13.82-6.18Zm1.093-.488,13.82-6.176,13.82,6.176-13.82,6.18Zm28.728.488,13.82,6.179-13.82,6.18-13.82-6.18Zm1.088-.488,13.82-6.18,13.825,6.18-13.825,6.18Zm28.733.488,13.82,6.179-13.82,6.18-13.82-6.18Zm1.088-.488,13.82-6.176,13.82,6.176-13.82,6.18Zm28.729.488,13.82,6.179-13.82,6.18-13.82-6.18Zm1.093-.488,13.82-6.176,13.82,6.176-13.82,6.18Zm0-13.33,13.82-6.179,13.82,6.179-13.82,6.18Zm0-13.332,13.82-6.18,13.82,6.18-13.82,6.18Zm0-13.33,13.82-6.179,13.82,6.179-13.82,6.176Zm0-13.332,13.82-6.18,13.82,6.18-13.82,6.18Zm0-13.33,13.82-6.18,13.82,6.18-13.82,6.176Zm0-13.332,13.82-6.18,13.82,6.18-13.82,6.18Zm0-13.33,13.82-6.18,13.82,6.18-13.82,6.176Zm0-13.332,13.82-6.18,13.82,6.18-13.82,6.179Zm0-13.33,13.82-6.18,13.82,6.18-13.82,6.176Zm0-13.333,13.82-6.179,13.82,6.179-13.82,6.18Zm0-13.329,13.82-6.18,13.82,6.18-13.82,6.176Zm0-13.333,13.82-6.179,13.82,6.179-13.82,6.18Zm0-13.329,13.82-6.18,13.82,6.176-13.82,6.18Zm0-13.333,13.82-6.18,13.82,6.18-13.82,6.18Zm0-13.332,13.82-6.176,13.82,6.176-13.82,6.18Zm12.727,6.666-13.82,6.18-13.82-6.18,13.82-6.18Zm-28.729-.487-13.82-6.18,13.82-6.176,13.82,6.176Zm-1.088.487-13.82,6.18-13.82-6.18,13.82-6.18Zm-28.734-.487-13.82-6.18,13.82-6.176,13.82,6.176Zm-1.088.487-13.82,6.18-13.82-6.18,13.82-6.18ZM556.6,125.1l-13.82-6.18,13.82-6.176,13.82,6.176Zm-1.093.487-13.82,6.18-13.82-6.18,13.82-6.18Zm-28.729-.487-13.82-6.18,13.82-6.176,13.82,6.176Zm-1.088.487-13.82,6.18-13.82-6.18,13.82-6.18Zm-28.729-.487-13.825-6.18,13.82-6.176,13.825,6.176Zm-1.093.487-13.82,6.18-13.82-6.18,13.82-6.18Zm-28.729-.487-13.82-6.18,13.82-6.176,13.82,6.176Zm-1.088.487-13.82,6.18-13.824-6.18,13.824-6.18Zm-28.732-.487-13.82-6.18,13.82-6.176,13.82,6.176Zm-1.088.487-13.82,6.18-13.82-6.18,13.82-6.18ZM407.5,125.1l-13.82-6.18,13.82-6.176,13.82,6.176Zm-1.093.487-13.82,6.18-13.82-6.18,13.82-6.18ZM391.5,132.252l-13.82,6.18-13.82-6.18,13.82-6.18Zm-14.909,6.666-13.82,6.176-13.82-6.176,13.82-6.179Zm-14.912,6.663-13.82,6.18-13.82-6.176,13.82-6.18Zm-14.909,6.666-13.82,6.18-13.82-6.18,13.82-6.176Zm-14.909,6.666-13.82,6.18-13.82-6.18,13.82-6.179Zm-14.913,6.667-13.82,6.179-13.82-6.179,13.82-6.18Zm-14.909,6.666-13.82,6.176-13.82-6.176,13.82-6.18Zm-14.909,6.663-13.82,6.18-13.82-6.18,13.82-6.176Zm0,13.333-13.82,6.179-13.82-6.179,13.82-6.18Zm0,13.329-13.82,6.18-13.82-6.18,13.82-6.176Zm0,13.333-13.82,6.18-13.82-6.18,13.82-6.18Zm0,13.33-13.82,6.179-13.82-6.179,13.82-6.177Zm0,13.332-13.82,6.18-13.82-6.18,13.82-6.18Zm0,13.33-13.82,6.179L259.49,258.9l13.82-6.176Zm0,13.332-13.82,6.18-13.82-6.18,13.82-6.18Zm0,13.333-13.82,6.176-13.82-6.176,13.82-6.18Zm0,13.329-13.82,6.18-13.82-6.18,13.82-6.18Zm0,13.33-13.82,6.18-13.82-6.176,13.82-6.18Zm0,13.332-13.82,6.18-13.82-6.18,13.82-6.179Zm0,13.333-13.82,6.176-13.82-6.176,13.82-6.18ZM274.4,332.218l13.82-6.18,13.82,6.18-13.82,6.179Zm28.729.487,13.825,6.18-13.825,6.176-13.82-6.176Zm1.093-.487,13.82-6.18,13.82,6.18L318.04,338.4Zm28.729.487,13.82,6.18-13.82,6.176-13.82-6.176Zm1.088-.487,13.82-6.18,13.82,6.18-13.82,6.179Zm28.732.487,13.82,6.18-13.82,6.176-13.82-6.176Zm1.088-.487,13.82-6.18,13.82,6.18-13.82,6.179Zm28.729.487,13.82,6.18-13.82,6.176-13.82-6.176Zm1.093-.487,13.82-6.18,13.82,6.18L407.5,338.4Zm28.729.487,13.82,6.18-13.82,6.176-13.82-6.176Zm1.088-.487,13.82-6.18,13.82,6.18-13.82,6.179Zm28.732.487,13.82,6.18-13.82,6.176-13.824-6.176Zm1.088-.487,13.82-6.18,13.82,6.18-13.82,6.179Zm28.729.487,13.82,6.18-13.82,6.176-13.82-6.176Zm1.088-.487,13.825-6.18,13.82,6.18-13.82,6.179Zm28.733.487,13.82,6.18-13.82,6.176-13.82-6.176Zm1.088-.487,13.82-6.18,13.82,6.18-13.82,6.179Zm28.729.487,13.825,6.18-13.825,6.176-13.82-6.176Zm1.093-.487,13.82-6.18,13.82,6.18L556.6,338.4Zm28.728.487,13.82,6.18-13.82,6.176-13.82-6.176Zm1.088-.487,13.82-6.18,13.82,6.18-13.82,6.179Zm28.733.487,13.82,6.18-13.82,6.176-13.82-6.176Zm1.088-.487,13.82-6.18,13.82,6.18-13.82,6.179Zm28.729.487,13.82,6.18-13.82,6.176-13.82-6.176Zm1.093-.487,13.82-6.18,13.82,6.18-13.82,6.179Zm28.729.487,13.82,6.18-13.82,6.176-13.82-6.176Zm-13.82-7.154,13.82-6.179,13.82,6.179-13.82,6.18Zm0-13.329,13.82-6.18,13.82,6.18-13.82,6.176Zm0-13.333,13.82-6.18,13.82,6.18-13.82,6.18Zm0-13.332,13.82-6.176,13.82,6.176-13.82,6.18Zm0-13.33,13.82-6.18,13.82,6.18-13.82,6.18Zm0-13.332,13.82-6.176,13.82,6.179-13.82,6.176Zm0-13.33,13.82-6.18,13.82,6.18-13.82,6.18Zm0-13.332,13.82-6.177,13.82,6.177-13.82,6.179Zm0-13.33,13.82-6.18,13.82,6.18-13.82,6.18Zm0-13.333,13.82-6.176,13.82,6.176-13.82,6.18Zm0-13.329,13.82-6.18,13.82,6.18-13.82,6.179Zm0-13.333,13.82-6.176,13.82,6.176-13.82,6.18Zm0-13.329,13.82-6.18,13.82,6.18-13.82,6.179Zm0-13.333,13.82-6.18,13.82,6.18-13.82,6.18Zm0-13.33,13.82-6.179,13.82,6.179-13.82,6.176Zm0-13.332,13.82-6.18,13.82,6.18-13.82,6.18Zm0-13.33,13.82-6.18,13.82,6.18-13.82,6.18Zm-1.088-.487-13.82-6.18,13.82-6.18,13.82,6.18Zm-1.093.487-13.82,6.176-13.82-6.176,13.82-6.18Zm-28.729-.487-13.82-6.18,13.82-6.18,13.82,6.18Zm-1.088.487-13.82,6.176-13.82-6.176,13.82-6.18Zm-28.734-.487-13.82-6.18,13.82-6.18,13.82,6.18Zm-1.088.487-13.82,6.176-13.82-6.176,13.82-6.18Zm-28.728-.487-13.82-6.18,13.82-6.18,13.82,6.18Zm-1.088.487-13.825,6.176-13.82-6.176,13.82-6.18Zm-28.733-.487-13.82-6.18,13.82-6.18,13.82,6.18Zm-1.088.487-13.82,6.176-13.82-6.176,13.82-6.18Zm-28.733-.487-13.82-6.18,13.825-6.18,13.82,6.18Zm-1.088.487-13.82,6.176-13.82-6.176,13.82-6.18Zm-28.729-.487-13.82-6.18,13.82-6.18,13.82,6.18Zm-1.088.487-13.82,6.176-13.824-6.176,13.824-6.18Zm-28.732-.487-13.82-6.18,13.82-6.18,13.82,6.18Zm-1.088.487-13.82,6.176-13.82-6.176,13.82-6.18Zm-28.729-.487-13.82-6.18,13.82-6.18,13.82,6.18Zm-1.093.487-13.82,6.176-13.82-6.176,13.82-6.18ZM391.5,118.919l-13.82,6.18-13.82-6.18,13.82-6.176Zm-14.909,6.666-13.82,6.18-13.82-6.18,13.82-6.18Zm-14.912,6.666-13.82,6.18-13.82-6.18,13.82-6.18Zm-14.909,6.666-13.82,6.18-13.82-6.18,13.82-6.179Zm-14.909,6.667-13.82,6.176-13.82-6.18,13.82-6.176Zm-14.909,6.663-13.825,6.18-13.82-6.18,13.82-6.18Zm-14.913,6.666-13.82,6.18-13.82-6.18,13.82-6.179ZM287.13,165.58l-13.82,6.179-13.82-6.179,13.82-6.18Zm-14.909,6.666L258.4,178.423l-13.82-6.176,13.82-6.18Zm0,13.329-13.825,6.18-13.82-6.18L258.4,179.4Zm0,13.333-13.82,6.176-13.825-6.176,13.82-6.18Zm0,13.33L258.4,218.417l-13.82-6.179,13.82-6.18Zm0,13.332-13.82,6.176-13.825-6.176,13.82-6.18Zm0,13.33-13.825,6.18-13.82-6.18,13.825-6.18Zm0,13.332L258.4,258.408l-13.82-6.176,13.82-6.18Zm0,13.33-13.82,6.18-13.825-6.18,13.82-6.18Zm0,13.332-13.825,6.18-13.82-6.18,13.82-6.179Zm0,13.33L258.4,298.4l-13.825-6.18,13.82-6.176Zm0,13.332-13.82,6.18-13.825-6.18,13.825-6.179Zm0,13.33-13.825,6.18-13.82-6.18,13.82-6.176Zm0,13.333L258.4,338.4l-13.825-6.179,13.82-6.18Zm0,13.329-13.825,6.18-13.82-6.18,13.825-6.176Zm1.088.488,13.82,6.179-13.82,6.18-13.82-6.18Zm1.088-.488,13.82-6.176,13.82,6.176-13.82,6.18Zm28.733.488,13.82,6.179-13.825,6.18-13.82-6.18Zm1.088-.488,13.82-6.176,13.82,6.176-13.82,6.18Zm28.729.488,13.82,6.179-13.82,6.18-13.82-6.18Zm1.088-.488,13.82-6.176,13.82,6.176-13.82,6.18Zm28.732.488,13.82,6.179-13.82,6.18-13.82-6.18Zm1.088-.488,13.82-6.176,13.82,6.176-13.82,6.18Zm28.729.488,13.82,6.179-13.82,6.18-13.82-6.18Zm1.093-.488,13.82-6.176,13.82,6.176-13.82,6.18Zm28.729.488,13.82,6.179-13.82,6.18-13.82-6.18Zm1.088-.488,13.82-6.176,13.82,6.176-13.82,6.18Zm28.732.488,13.82,6.179-13.82,6.18-13.82-6.18Zm1.088-.488,13.82-6.176,13.82,6.176-13.82,6.18Zm28.729.488,13.82,6.179-13.82,6.18-13.82-6.18Zm1.088-.488,13.825-6.176,13.82,6.176-13.825,6.18Zm28.733.488,13.82,6.179-13.82,6.18-13.82-6.18Zm1.088-.488,13.82-6.176,13.82,6.176-13.82,6.18Zm28.729.488,13.825,6.179-13.825,6.18-13.82-6.18Zm1.093-.488,13.82-6.176,13.82,6.176-13.82,6.18Zm28.728.488,13.82,6.179-13.82,6.18-13.82-6.18Zm1.088-.488,13.82-6.176,13.825,6.176-13.825,6.18Zm28.733.488,13.82,6.179-13.82,6.18-13.82-6.18Zm1.088-.488,13.82-6.176,13.82,6.176-13.82,6.18Zm28.729.488,13.82,6.179-13.82,6.18-13.82-6.18Zm1.093-.488,13.82-6.176,13.82,6.176-13.82,6.18Zm28.729.488,13.82,6.179-13.82,6.18-13.82-6.18Zm1.088-.488,13.82-6.176,13.82,6.176-13.82,6.18Zm0-13.329,13.82-6.18,13.82,6.18-13.82,6.179Zm0-13.333,13.82-6.176,13.82,6.176-13.82,6.18Zm0-13.33,13.82-6.179,13.82,6.179-13.82,6.18Zm0-13.332,13.82-6.18,13.82,6.18-13.82,6.18Zm0-13.33,13.82-6.179,13.82,6.179-13.82,6.18Zm0-13.332,13.82-6.18,13.82,6.18-13.82,6.18Zm0-13.33,13.82-6.18,13.82,6.18-13.82,6.18Zm0-13.332,13.82-6.18,13.82,6.18-13.82,6.18Zm0-13.33,13.82-6.18,13.82,6.18-13.82,6.176Zm0-13.332,13.82-6.18,13.82,6.18-13.82,6.179Zm0-13.33,13.82-6.18,13.82,6.18-13.82,6.176Zm0-13.333,13.82-6.179,13.82,6.179-13.82,6.18Zm0-13.329,13.82-6.18,13.82,6.18-13.82,6.176Zm0-13.333,13.82-6.179,13.82,6.179-13.82,6.18Zm0-13.332,13.82-6.176,13.82,6.18-13.82,6.176Zm0-13.33,13.82-6.18,13.82,6.18-13.82,6.18Zm0-13.332,13.82-6.176,13.82,6.176-13.82,6.18Zm0-13.33,13.82-6.18,13.82,6.18-13.82,6.18Zm0-13.332,13.82-6.177,13.82,6.177-13.82,6.179Zm12.732,6.666-13.82,6.18-13.82-6.18,13.82-6.18Zm-28.729-.487-13.82-6.179,13.82-6.177,13.82,6.177Zm-1.093.487-13.82,6.18-13.82-6.18,13.82-6.18Zm-28.729-.487-13.82-6.179,13.82-6.177,13.82,6.177Zm-1.088.487-13.82,6.18-13.82-6.18,13.82-6.18Zm-28.734-.487-13.82-6.179,13.82-6.177,13.82,6.177Zm-1.088.487-13.82,6.18-13.82-6.18,13.82-6.18ZM556.6,98.436l-13.82-6.179,13.82-6.177,13.82,6.177Zm-1.088.487-13.825,6.18-13.82-6.18,13.82-6.18Zm-28.733-.487-13.82-6.179,13.82-6.177,13.82,6.177Zm-1.088.487-13.82,6.18-13.82-6.18,13.82-6.18Zm-28.729-.487-13.825-6.179,13.82-6.177,13.825,6.177Zm-1.093.487-13.82,6.18-13.82-6.18,13.82-6.18Zm-28.729-.487-13.82-6.179,13.82-6.177,13.82,6.177Zm-1.088.487-13.82,6.18-13.824-6.18,13.824-6.18Zm-28.732-.487L423.5,92.257l13.82-6.177,13.82,6.177Zm-1.088.487-13.82,6.18-13.82-6.18,13.82-6.18ZM407.5,98.436l-13.82-6.179,13.82-6.177,13.82,6.177Zm-1.093.487-13.82,6.18-13.82-6.18,13.82-6.18ZM391.5,105.59l-13.82,6.18-13.82-6.18,13.82-6.18Zm-14.909,6.666-13.82,6.176-13.82-6.176,13.82-6.18Zm-14.912,6.663-13.82,6.18-13.82-6.18,13.82-6.176Zm-14.909,6.666-13.82,6.18-13.82-6.18,13.82-6.18Zm-14.909,6.666-13.82,6.18-13.82-6.18,13.82-6.18Zm-14.909,6.666-13.825,6.18-13.82-6.18,13.82-6.179Zm-14.913,6.667-13.82,6.176-13.82-6.176,13.82-6.18Zm-14.909,6.663-13.82,6.18-13.82-6.18,13.82-6.176Zm-14.909,6.666-13.82,6.18-13.825-6.18,13.82-6.179Zm-14.913,6.667-13.82,6.179-13.82-6.179,13.82-6.18Zm0,13.329-13.82,6.18-13.82-6.18,13.82-6.176Zm0,13.333-13.82,6.179-13.82-6.179,13.82-6.18Zm0,13.329-13.82,6.18-13.82-6.18,13.82-6.176Zm0,13.333-13.82,6.18-13.82-6.18,13.82-6.18Zm0,13.33-13.82,6.179-13.82-6.179,13.82-6.177Zm0,13.332-13.82,6.18-13.82-6.18,13.82-6.18Zm0,13.33-13.82,6.179-13.82-6.179,13.82-6.176Zm0,13.332-13.82,6.18-13.82-6.18,13.82-6.18Zm0,13.33-13.82,6.18-13.82-6.18,13.82-6.176Zm0,13.332-13.82,6.18-13.82-6.18,13.82-6.18Zm0,13.333-13.82,6.176-13.82-6.176,13.82-6.18Zm0,13.329-13.82,6.18-13.82-6.18,13.82-6.179Zm0,13.333-13.82,6.176-13.82-6.176,13.82-6.18Zm0,13.329-13.82,6.18-13.82-6.18,13.82-6.179Zm0,13.333-13.82,6.176-13.82-6.176,13.82-6.18Zm-12.732-6.666,13.82-6.18,13.825,6.18-13.82,6.18Zm28.734.487,13.82,6.18-13.82,6.176-13.82-6.176Zm1.088-.487,13.82-6.18,13.82,6.18-13.82,6.18Zm28.729.487,13.82,6.18-13.82,6.176-13.82-6.176Zm1.093-.487,13.82-6.18,13.82,6.18-13.82,6.18Zm28.729.487,13.82,6.18-13.82,6.176-13.82-6.176Zm1.088-.487,13.82-6.18,13.82,6.18-13.82,6.18Zm28.732.487,13.82,6.18-13.82,6.176-13.82-6.176Zm1.088-.487,13.82-6.18,13.82,6.18-13.82,6.18Zm28.729.487,13.82,6.18-13.82,6.176-13.82-6.176Zm1.093-.487,13.82-6.18,13.82,6.18-13.82,6.18Zm28.729.487,13.82,6.18-13.82,6.176-13.82-6.176Zm1.088-.487,13.82-6.18,13.82,6.18-13.82,6.18Zm28.732.487,13.82,6.18-13.82,6.176-13.824-6.176Zm1.088-.487,13.82-6.18,13.82,6.18-13.82,6.18Zm28.729.487,13.82,6.18-13.82,6.176-13.82-6.176Zm1.088-.487,13.82-6.18,13.825,6.18-13.82,6.18Zm28.733.487,13.82,6.18-13.82,6.176-13.82-6.176Zm1.088-.487,13.82-6.18,13.82,6.18-13.82,6.18Zm28.729.487,13.825,6.18-13.825,6.176-13.82-6.176Zm1.093-.487,13.82-6.18,13.82,6.18-13.82,6.18Zm28.728.487,13.82,6.18-13.82,6.176-13.82-6.176Zm1.088-.487,13.82-6.18,13.82,6.18-13.82,6.18Zm28.733.487,13.82,6.18-13.82,6.176-13.82-6.176Zm1.088-.487,13.82-6.18,13.82,6.18-13.82,6.18Zm28.729.487,13.82,6.18-13.82,6.176-13.82-6.176Zm1.093-.487,13.82-6.18,13.82,6.18-13.82,6.18Zm28.729.487,13.82,6.18-13.82,6.176-13.82-6.176Zm1.088-.487,13.82-6.18,13.82,6.18-13.82,6.18Zm28.732.487,13.82,6.18-13.82,6.176-13.825-6.176Zm-13.82-7.154,13.82-6.179,13.82,6.179-13.82,6.18Zm0-13.329,13.825-6.18,13.82,6.18-13.82,6.176Zm0-13.333,13.825-6.179,13.82,6.179-13.82,6.18Zm0-13.329,13.82-6.18,13.82,6.18-13.82,6.176Zm0-13.333,13.825-6.18,13.82,6.18-13.82,6.18Zm0-13.332,13.82-6.176,13.82,6.176-13.82,6.18Zm0-13.33,13.825-6.18,13.82,6.18-13.82,6.18Zm0-13.332,13.825-6.176,13.82,6.176-13.82,6.179Zm0-13.33,13.82-6.18,13.82,6.18-13.82,6.18Zm0-13.332,13.825-6.177,13.82,6.177-13.82,6.179Zm0-13.33,13.82-6.18,13.82,6.18-13.82,6.18Zm0-13.333,13.825-6.176,13.82,6.176-13.82,6.18Zm0-13.329,13.825-6.18,13.82,6.18-13.82,6.179Zm0-13.333,13.82-6.176,13.82,6.176-13.82,6.18Zm0-13.329,13.825-6.18,13.82,6.18-13.82,6.179Zm0-13.333,13.82-6.176,13.82,6.176-13.82,6.18Zm0-13.33,13.825-6.179,13.82,6.179-13.82,6.18Zm0-13.332,13.825-6.18,13.82,6.18-13.82,6.18Zm0-13.33,13.82-6.18,13.82,6.18-13.82,6.176Zm0-13.332,13.825-6.18,13.82,6.18-13.82,6.18Zm0-13.33,13.825-6.18,13.82,6.18-13.82,6.176Zm-1.087-.487-13.82-6.18,13.82-6.18,13.82,6.18Zm-1.088.487-13.82,6.176-13.82-6.176,13.82-6.18Zm-28.729-.487-13.82-6.18,13.82-6.18,13.82,6.18Zm-1.093.487-13.82,6.176-13.82-6.176,13.82-6.18Zm-28.729-.487-13.82-6.18,13.82-6.18,13.82,6.18Zm-1.088.487-13.82,6.176-13.82-6.176,13.82-6.18Zm-28.734-.487-13.82-6.18,13.82-6.18,13.82,6.18Zm-1.088.487-13.82,6.176-13.82-6.176,13.82-6.18ZM556.6,85.107l-13.82-6.18,13.82-6.18,13.82,6.18Zm-1.093.487-13.82,6.176-13.82-6.176,13.82-6.18Zm-28.729-.487-13.82-6.18,13.82-6.18,13.82,6.18Zm-1.088.487-13.82,6.176-13.82-6.176,13.82-6.18Zm-28.729-.487-13.825-6.18,13.825-6.18,13.82,6.18Zm-1.093.487-13.82,6.176-13.82-6.176,13.82-6.18Zm-28.729-.487-13.82-6.18,13.82-6.18,13.82,6.18Zm-1.088.487-13.82,6.176-13.824-6.176,13.824-6.18Zm-28.732-.487-13.82-6.18,13.82-6.18,13.82,6.18Zm-1.088.487-13.82,6.176-13.82-6.176,13.82-6.18ZM407.5,85.107l-13.82-6.18,13.82-6.18,13.82,6.18Zm-1.093.487-13.82,6.176-13.82-6.176,13.82-6.18ZM391.5,92.257l-13.82,6.179-13.82-6.179,13.82-6.177ZM376.59,98.924l-13.82,6.18-13.82-6.18,13.82-6.18Zm-14.912,6.666-13.82,6.18-13.82-6.18,13.82-6.18Zm-14.909,6.666-13.82,6.176-13.82-6.176,13.82-6.18Zm-14.909,6.663-13.82,6.18-13.82-6.18,13.82-6.176Zm-14.909,6.666-13.825,6.18-13.82-6.18,13.82-6.18Zm-14.913,6.666-13.82,6.18-13.82-6.18,13.82-6.18Zm-14.909,6.666-13.82,6.18-13.82-6.18,13.82-6.179Zm-14.909,6.667L258.4,151.761l-13.82-6.176,13.82-6.18Zm-14.913,6.663-13.82,6.18-13.82-6.18,13.82-6.176ZM242.4,158.913l-13.82,6.18-13.82-6.18,13.82-6.179Zm0,13.333-13.82,6.176-13.82-6.176,13.82-6.18Zm0,13.329-13.82,6.18-13.82-6.18,13.82-6.179Zm0,13.333-13.82,6.176-13.82-6.176,13.82-6.18Zm0,13.33-13.82,6.179-13.82-6.179,13.82-6.18Zm0,13.332-13.82,6.176-13.82-6.176,13.82-6.18Zm0,13.33-13.82,6.18-13.82-6.18,13.82-6.18Zm0,13.332-13.82,6.176-13.82-6.176,13.82-6.18Zm0,13.33-13.82,6.18-13.82-6.18,13.82-6.18Zm0,13.332-13.82,6.176-13.82-6.176,13.82-6.179Zm0,13.33-13.82,6.18-13.82-6.18,13.82-6.18Zm0,13.332-13.82,6.18-13.82-6.18,13.82-6.179Zm0,13.33-13.82,6.18-13.82-6.18,13.82-6.176Zm0,13.333-13.82,6.179-13.82-6.179,13.82-6.18Zm0,13.329-13.82,6.18-13.82-6.18,13.82-6.176Zm0,13.333-13.82,6.18-13.82-6.18,13.82-6.18Zm0,13.329-13.82,6.18-13.82-6.18,13.82-6.176Zm1.087.487,13.82,6.18-13.82,6.18-13.82-6.18Zm1.088-.487,13.825-6.176,13.82,6.176-13.82,6.18Zm28.734.487,13.82,6.18-13.82,6.18-13.82-6.18Zm1.088-.487,13.82-6.176,13.82,6.176-13.82,6.18Zm28.729.487,13.82,6.18-13.82,6.18-13.82-6.18Zm1.093-.487,13.82-6.176,13.82,6.176-13.82,6.18Zm28.729.487,13.82,6.18-13.82,6.18-13.82-6.18Zm1.088-.487,13.82-6.176,13.82,6.176-13.82,6.18Zm28.732.487,13.82,6.18-13.82,6.18-13.82-6.18Zm1.088-.487,13.82-6.176,13.82,6.176-13.82,6.18Zm28.729.487,13.82,6.18-13.82,6.18-13.82-6.18Zm1.093-.487,13.82-6.176,13.82,6.176-13.82,6.18Zm28.729.487,13.82,6.18-13.82,6.18-13.82-6.18Zm1.088-.487,13.82-6.176,13.82,6.176-13.82,6.18Zm28.732.487,13.82,6.18-13.82,6.18-13.824-6.18Zm1.088-.487,13.82-6.176,13.82,6.176-13.82,6.18Zm28.729.487,13.82,6.18-13.82,6.18-13.82-6.18Zm1.088-.487,13.825-6.176,13.82,6.176-13.825,6.18Zm28.733.487,13.82,6.18-13.82,6.18-13.82-6.18Zm1.088-.487,13.82-6.176,13.82,6.176-13.82,6.18Zm28.729.487,13.825,6.18-13.825,6.18-13.82-6.18Zm1.093-.487,13.82-6.176,13.82,6.176-13.82,6.18Zm28.728.487,13.82,6.18-13.82,6.18-13.82-6.18Zm1.088-.487,13.82-6.176,13.82,6.176-13.82,6.18Zm28.733.487,13.82,6.18-13.82,6.18-13.82-6.18Zm1.088-.487,13.82-6.176,13.82,6.176-13.82,6.18Zm28.729.487,13.82,6.18-13.82,6.18-13.82-6.18Zm1.093-.487,13.82-6.176,13.82,6.176-13.82,6.18Zm28.729.487,13.82,6.18-13.82,6.18-13.82-6.18Zm1.088-.487,13.82-6.176,13.82,6.176-13.82,6.18Zm28.732.487,13.82,6.18-13.82,6.18-13.82-6.18Zm1.088-.487,13.82-6.176,13.82,6.176-13.82,6.18Zm0-13.329,13.82-6.18,13.82,6.18-13.82,6.18Zm0-13.333,13.82-6.176,13.82,6.176-13.82,6.18Zm0-13.329,13.82-6.18,13.82,6.18L705.7,338.4Zm0-13.333,13.82-6.176,13.82,6.176-13.82,6.18Zm0-13.33,13.82-6.179,13.82,6.179-13.82,6.18Zm0-13.332,13.82-6.18,13.82,6.18L705.7,298.4Zm0-13.33,13.82-6.179,13.82,6.179-13.82,6.18Zm0-13.332,13.82-6.18,13.82,6.18-13.82,6.18Zm0-13.33,13.82-6.18,13.82,6.18-13.82,6.176Zm0-13.332,13.82-6.18,13.82,6.18-13.82,6.18Zm0-13.33,13.82-6.18,13.82,6.18-13.82,6.176Zm0-13.332,13.82-6.18,13.82,6.18-13.82,6.179Zm0-13.33,13.82-6.18,13.82,6.18-13.82,6.176Zm0-13.333L705.7,179.4l13.82,6.179-13.82,6.18Zm0-13.329,13.82-6.18,13.82,6.18-13.82,6.176Zm0-13.333,13.82-6.179,13.82,6.179-13.82,6.18Zm0-13.329,13.82-6.18,13.82,6.18-13.82,6.176Zm0-13.333,13.82-6.18,13.82,6.18-13.82,6.18Zm0-13.332,13.82-6.176,13.82,6.176L705.7,125.1Zm0-13.33,13.82-6.18,13.82,6.18-13.82,6.18Zm0-13.332,13.82-6.177,13.82,6.177L705.7,98.436Zm0-13.33,13.82-6.18,13.82,6.18-13.82,6.18Zm12.732-6.666-13.82,6.179-13.825-6.179,13.825-6.18ZM675.875,59.419l13.82,6.176-13.82,6.18-13.82-6.18Zm-1.088,12.843-13.82,6.179-13.82-6.179,13.82-6.18ZM646.058,59.419l13.82,6.176-13.82,6.18-13.82-6.18Zm-1.093,12.843-13.82,6.179-13.82-6.179,13.82-6.18ZM616.236,59.419l13.82,6.176-13.82,6.18-13.82-6.18Zm-1.088,12.843-13.82,6.179-13.82-6.179,13.82-6.18ZM586.414,59.419l13.82,6.176-13.82,6.18-13.82-6.18Zm-1.088,12.843-13.82,6.179-13.82-6.179,13.82-6.18ZM556.6,59.419l13.82,6.176-13.82,6.18-13.82-6.18ZM555.51,72.262,541.685,78.44l-13.82-6.179,13.82-6.18ZM526.776,59.419l13.82,6.176-13.82,6.18-13.82-6.18Zm-1.088,12.843-13.82,6.179-13.82-6.179,13.82-6.18ZM496.955,59.419l13.825,6.176-13.82,6.18-13.825-6.18Zm-1.088,12.843-13.82,6.179-13.82-6.179,13.82-6.18ZM467.138,59.419l13.82,6.176-13.82,6.18-13.82-6.18Zm-1.088,12.843-13.82,6.179-13.82-6.179,13.82-6.18ZM437.317,59.419l13.82,6.176-13.82,6.18-13.82-6.18Zm-1.088,12.843-13.82,6.179-13.82-6.179,13.82-6.18ZM407.5,59.419l13.82,6.176-13.82,6.18-13.82-6.18Zm-14.913,6.663,13.82,6.18-13.82,6.179-13.82-6.179Zm-14.909,6.666,13.82,6.18-13.82,6.18-13.82-6.18Zm-14.909,6.666,13.82,6.18-13.82,6.176-13.82-6.176Zm-14.912,6.666,13.82,6.177-13.82,6.179-13.82-6.179Zm-14.909,6.663,13.82,6.18-13.82,6.18-13.82-6.18ZM318.04,99.41l13.82,6.18-13.82,6.18-13.82-6.18Zm-14.913,6.666,13.82,6.18-13.82,6.176-13.82-6.176Zm-14.909,6.667,13.82,6.176-13.82,6.18-13.82-6.18Zm-14.909,6.663,13.82,6.18-13.82,6.18-13.82-6.18ZM258.4,126.072l13.825,6.18-13.825,6.18-13.82-6.18Zm-14.909,6.667,13.82,6.179-13.82,6.18-13.82-6.18Zm-14.907,6.666,13.82,6.18-13.82,6.176-13.82-6.18Zm-28.733,12.842,13.825-6.18,13.82,6.18-13.82,6.18Zm0,13.333,13.825-6.18,13.82,6.18-13.82,6.179Zm0,13.329,13.825-6.176,13.82,6.176-13.82,6.18Zm0,13.333,13.825-6.18,13.82,6.18-13.82,6.179Zm0,13.329,13.82-6.176,13.82,6.176-13.82,6.18Zm0,13.333,13.825-6.18,13.82,6.18-13.82,6.18Zm0,13.33,13.82-6.177,13.82,6.177-13.82,6.179Zm0,13.332,13.825-6.18,13.82,6.18-13.82,6.18Zm0,13.33,13.825-6.176,13.82,6.176-13.82,6.179Zm0,13.332,13.82-6.18,13.82,6.18-13.82,6.18Zm0,13.33,13.825-6.176,13.82,6.176-13.82,6.18Zm0,13.332,13.82-6.18,13.82,6.18-13.82,6.18Zm0,13.333,13.825-6.18,13.82,6.18-13.82,6.176Zm0,13.329,13.82-6.179,13.82,6.179-13.82,6.18Zm0,13.333,13.825-6.18,13.82,6.18-13.82,6.176Zm0,13.329,13.825-6.179,13.82,6.179-13.82,6.18Zm0,13.333,13.82-6.18,13.82,6.18-13.82,6.176Zm0,13.33,13.825-6.18,13.82,6.18-13.82,6.18Zm13.825,19.508-13.82-6.176,13.82-6.18,13.82,6.18Zm1.088-12.842,13.82-6.18,13.82,6.18-13.82,6.18Zm28.728,12.842-13.82-6.176,13.82-6.18,13.82,6.18Zm1.088-12.842,13.82-6.18,13.825,6.18-13.825,6.18Zm28.734,12.842-13.82-6.176,13.82-6.18,13.82,6.18Zm1.088-12.842,13.82-6.18,13.82,6.18-13.82,6.18Zm28.729,12.842-13.82-6.176,13.82-6.18,13.825,6.18Zm1.093-12.842,13.82-6.18,13.82,6.18-13.82,6.18Zm28.729,12.842-13.82-6.176,13.82-6.18,13.82,6.18Zm1.088-12.842,13.82-6.18,13.82,6.18-13.82,6.18Zm28.732,12.842-13.82-6.176,13.82-6.18,13.82,6.18Zm1.088-12.842,13.82-6.18,13.82,6.18-13.82,6.18Zm28.729,12.842-13.82-6.176,13.82-6.18,13.82,6.18Zm1.093-12.842,13.82-6.18,13.82,6.18-13.82,6.18Zm28.729,12.842-13.82-6.176,13.82-6.18,13.82,6.18Zm1.088-12.842,13.82-6.18,13.82,6.18-13.82,6.18Zm28.732,12.842-13.82-6.176,13.82-6.18,13.82,6.18Zm1.088-12.842,13.82-6.18,13.82,6.18-13.82,6.18Zm28.729,12.842-13.82-6.176,13.82-6.18,13.82,6.18Zm1.088-12.842,13.82-6.18,13.825,6.18-13.82,6.18Zm28.733,12.842-13.82-6.176,13.82-6.18,13.82,6.18Zm1.088-12.842,13.82-6.18,13.82,6.18-13.82,6.18Zm28.729,12.842-13.82-6.176,13.82-6.18,13.825,6.18Zm1.093-12.842,13.82-6.18,13.82,6.18-13.82,6.18Zm28.728,12.842-13.82-6.176,13.82-6.18,13.82,6.18Zm1.088-12.842,13.82-6.18,13.825,6.18-13.825,6.18Zm28.733,12.842-13.82-6.176,13.82-6.18,13.82,6.18Zm1.088-12.842,13.82-6.18,13.82,6.18-13.82,6.18Zm28.729,12.842-13.82-6.176,13.82-6.18,13.82,6.18Zm1.093-12.842,13.82-6.18,13.82,6.18-13.82,6.18Zm28.729,12.842-13.82-6.176,13.82-6.18,13.82,6.18Zm1.088-12.842,13.82-6.18,13.82,6.18-13.82,6.18Zm28.732,12.842-13.825-6.176,13.825-6.18,13.82,6.18Zm1.088-12.842,13.82-6.18,13.82,6.18-13.82,6.18Zm42.549,6.666-13.82,6.176-13.82-6.176,13.82-6.18Zm0-13.332-13.82,6.18-13.82-6.18,13.82-6.18Zm0-13.33-13.82,6.176-13.82-6.176,13.82-6.18Zm0-13.333-13.82,6.18-13.82-6.18,13.82-6.179Zm0-13.329-13.82,6.176-13.82-6.176,13.82-6.18Zm0-13.333-13.82,6.18-13.82-6.18,13.82-6.179Zm0-13.329L720.6,318.4l-13.82-6.176,13.82-6.18Zm0-13.333-13.82,6.18-13.82-6.18,13.82-6.18Zm0-13.329-13.82,6.176-13.82-6.18,13.82-6.176Zm0-13.333-13.82,6.18-13.82-6.18,13.82-6.18Zm0-13.332-13.82,6.179-13.82-6.179,13.82-6.176Zm0-13.33-13.82,6.18-13.82-6.18,13.82-6.18Zm0-13.332-13.82,6.179-13.82-6.179,13.82-6.177Zm0-13.33-13.82,6.18-13.82-6.18,13.82-6.18Zm0-13.333-13.82,6.18-13.82-6.18,13.82-6.176Zm0-13.329-13.82,6.179-13.82-6.179,13.82-6.18Zm0-13.333-13.82,6.18-13.82-6.18,13.82-6.176Zm0-13.329-13.82,6.179-13.82-6.179,13.82-6.18Zm0-13.333-13.82,6.18-13.82-6.18,13.82-6.18Zm0-13.33L720.6,145.1l-13.82-6.18,13.82-6.179Zm0-13.332-13.82,6.18-13.82-6.18,13.82-6.18Zm0-13.33-13.82,6.176-13.82-6.176,13.82-6.18Zm0-13.332L720.6,105.1l-13.82-6.18,13.82-6.18Zm0-13.33L720.6,91.77l-13.82-6.176,13.82-6.18Zm0-13.332L720.6,78.44l-13.82-6.179,13.82-6.18Zm-543.1,329.6h.3l-.3-.134Z" transform="translate(-88.952 19.345)" opacity="0.67" fill="url(#linear-gradient-2)" style="mix-blend-mode: overlay;isolation: isolate"/>
    </g>
  </g>
</svg>
